<?xml version="1.0" standalone="no"?>
<!DOCTYPE svg PUBLIC "-//W3C//DTD SVG 20010904//EN"
 "http://www.w3.org/TR/2001/REC-SVG-20010904/DTD/svg10.dtd">
<svg version="1.0" xmlns="http://www.w3.org/2000/svg"
 width="3000.000000pt" height="2000.000000pt" viewBox="0 0 3000.000000 2000.000000"
 preserveAspectRatio="xMidYMid meet">

<g transform="translate(0.000000,2000.000000) scale(0.100000,-0.100000)"
fill="#000000" stroke="none">
<path d="M25723 12685 c-13 -9 -23 -25 -23 -35 0 -11 -9 -25 -20 -32 -11 -7
-20 -19 -20 -26 0 -7 -18 -30 -40 -52 -22 -22 -40 -49 -40 -60 0 -11 -7 -23
-15 -26 -8 -3 -31 -29 -51 -56 -20 -28 -82 -100 -137 -160 -125 -133 -147
-163 -147 -198 0 -49 -20 -88 -61 -114 -27 -18 -42 -36 -46 -57 -4 -23 -15
-35 -37 -44 -51 -21 -84 -53 -105 -100 -10 -24 -49 -82 -85 -131 -36 -48 -66
-91 -66 -96 0 -4 -8 -8 -18 -8 -30 0 -56 -37 -62 -88 -5 -43 -8 -48 -45 -65
-51 -24 -85 -55 -85 -79 0 -24 -58 -98 -86 -108 -17 -7 -22 -19 -26 -64 -5
-62 -22 -88 -79 -116 -50 -26 -61 -43 -68 -107 -6 -53 -8 -57 -38 -65 -24 -6
-33 -15 -38 -39 -4 -16 -24 -50 -45 -74 -46 -53 -84 -132 -107 -218 -16 -62
-16 -64 5 -108 34 -69 117 -174 235 -296 112 -116 152 -143 209 -143 38 0 105
41 189 117 80 73 168 143 180 143 18 0 91 55 194 146 90 81 296 233 353 263
18 9 22 9 22 -2 0 -8 -6 -20 -14 -26 -8 -6 -20 -26 -27 -44 -7 -18 -20 -37
-28 -43 -10 -8 -17 -37 -20 -89 l-6 -78 -35 -12 -35 -12 -3 -86 -3 -86 -42 -3
c-39 -3 -42 -5 -45 -35 -2 -19 7 -54 22 -86 50 -104 20 -147 -37 -54 -14 21
-25 27 -52 27 l-35 0 0 -58 c0 -50 -3 -59 -22 -67 -34 -15 -33 -40 1 -82 36
-44 42 -69 12 -53 -31 16 -69 12 -81 -9 -5 -11 -10 -39 -10 -63 0 -36 -5 -48
-30 -70 -29 -25 -30 -29 -30 -116 0 -94 -5 -107 -48 -114 -21 -3 -29 -18 -58
-106 -19 -56 -39 -137 -44 -179 -6 -42 -14 -81 -19 -87 -4 -6 -12 -29 -15 -51
-4 -22 -18 -57 -32 -77 -13 -21 -24 -42 -24 -48 0 -6 14 -37 30 -70 17 -33 30
-62 30 -64 0 -3 -12 -1 -26 5 -33 12 -64 3 -64 -19 0 -64 31 -403 39 -430 13
-42 62 -120 97 -153 14 -13 51 -64 81 -114 31 -49 75 -117 98 -150 24 -33 52
-78 63 -100 32 -64 101 -144 141 -165 48 -24 111 -93 140 -153 34 -70 93 -86
107 -30 5 17 -4 47 -28 96 -92 190 -109 228 -132 310 -32 109 -46 221 -46 357
0 132 16 319 35 430 9 47 18 128 21 180 7 121 16 153 136 475 150 402 349 822
618 1305 99 178 304 518 389 644 65 98 63 130 -12 279 -70 137 -163 276 -200
297 -24 14 -30 13 -69 -8 -24 -12 -62 -27 -85 -32 -106 -25 -129 -33 -213 -75
-49 -25 -131 -74 -183 -109 -52 -35 -112 -73 -133 -84 -21 -12 -61 -39 -88
-61 -26 -23 -57 -41 -68 -41 -11 0 -31 -9 -45 -20 -14 -11 -32 -20 -39 -20 -8
0 -14 -4 -14 -9 0 -19 -32 -41 -61 -41 -37 0 -36 7 4 56 18 21 39 51 46 66 8
15 49 71 92 124 44 54 79 104 79 113 0 9 19 34 41 56 54 53 143 162 207 255
29 41 72 103 97 137 61 86 64 115 29 232 -24 81 -29 120 -34 248 -4 135 -7
155 -25 172 -29 28 -66 35 -92 16z"/>
<path d="M21675 11178 c-38 -83 -1123 -2623 -1121 -2625 1 -1 128 2 281 8 154
5 525 13 825 17 477 7 549 10 576 24 52 28 132 107 163 161 83 147 668 1476
837 1902 76 194 94 259 94 347 l0 67 -61 66 -61 65 -759 0 -759 0 -15 -32z
m967 -198 c41 -12 58 -34 58 -74 0 -64 -112 -339 -547 -1346 -242 -561 -292
-658 -381 -744 l-40 -38 -231 4 c-130 2 -235 8 -240 13 -12 12 -32 -36 491
1188 l431 1007 211 0 c116 0 228 -5 248 -10z"/>
<path d="M4789 11180 c-82 -6 -106 -13 -159 -41 -34 -18 -73 -47 -86 -64 -69
-90 -299 -664 -310 -773 l-6 -58 233 -215 c383 -354 409 -386 389 -488 -36
-189 -273 -683 -353 -735 -34 -23 -187 -35 -427 -36 -113 0 -282 -3 -377 -7
l-172 -6 -26 -58 c-14 -32 -29 -82 -32 -110 l-6 -52 664 7 c365 3 701 11 747
16 98 10 150 36 212 107 73 83 163 263 284 564 111 277 127 379 76 484 -26 54
-148 177 -380 382 -174 155 -206 199 -204 287 3 106 109 376 199 501 32 45 58
70 92 87 48 23 48 23 504 26 l456 3 40 88 41 88 -76 7 c-101 8 -1202 5 -1323
-4z"/>
<path d="M6473 11133 c-255 -575 -1033 -2346 -1093 -2490 -22 -51 -35 -95 -30
-98 5 -3 21 -3 35 1 15 4 141 9 282 13 l256 6 133 305 c151 343 242 534 270
568 24 29 22 29 504 98 212 30 421 63 464 74 129 32 202 86 272 201 75 124
304 626 389 854 101 272 99 402 -10 478 -61 42 -144 47 -833 47 l-613 0 -26
-57z m865 -137 c42 -22 56 -50 48 -101 -8 -59 -90 -286 -195 -539 -188 -451
-259 -560 -383 -597 -44 -13 -313 -59 -344 -59 -13 0 -24 6 -24 13 0 6 124
300 274 652 l274 640 59 6 c99 12 256 3 291 -15z"/>
<path d="M8578 11149 c-102 -54 -147 -99 -193 -195 -128 -269 -609 -1389 -858
-1999 -57 -138 -62 -156 -62 -225 0 -86 16 -117 75 -147 32 -17 86 -18 710
-21 l675 -3 39 101 c22 55 36 104 32 108 -4 4 -191 10 -414 13 -224 3 -419 9
-435 14 -64 17 -57 40 185 600 l173 400 371 3 371 2 41 88 c22 48 39 88 37 90
-1 2 -163 6 -358 10 -195 4 -359 10 -363 14 -9 10 22 91 161 413 230 533 236
543 328 570 81 22 149 27 530 34 l357 6 39 83 40 82 -702 0 -702 -1 -77 -40z"/>
<path d="M10640 11180 c-192 -5 -209 -7 -255 -30 -104 -52 -155 -155 -637
-1285 -358 -839 -441 -1059 -442 -1158 -1 -57 0 -59 46 -103 l47 -44 698 2
698 3 27 99 c19 66 24 102 17 106 -13 8 -328 20 -554 20 -181 1 -301 12 -318
29 -14 14 6 79 93 296 82 206 469 1111 644 1506 155 350 161 358 288 370 46 4
252 8 459 8 l376 1 32 71 c17 38 32 80 34 92 l2 22 -525 1 c-289 0 -617 -2
-730 -6z"/>
<path d="M12215 11158 c-7 -18 -169 -393 -360 -833 -681 -1571 -756 -1747
-750 -1753 4 -4 140 -8 304 -10 l297 -3 148 348 c286 672 958 2258 963 2271 4
9 -58 12 -291 12 l-297 0 -14 -32z"/>
<path d="M13845 11180 c-70 -10 -125 -41 -176 -98 -55 -61 -344 -478 -1089
-1572 -593 -870 -634 -933 -613 -941 10 -4 135 -8 278 -8 l261 -1 350 533 351
532 243 3 243 2 -6 -37 c-7 -44 -93 -842 -103 -955 l-7 -78 292 0 c226 0 291
3 291 13 0 6 9 107 20 222 11 116 56 647 100 1180 45 534 86 1025 93 1093 l13
122 -246 -1 c-135 -1 -268 -5 -295 -9z m-110 -1064 c-14 -138 -28 -261 -30
-273 -5 -23 -8 -23 -145 -23 -83 0 -141 4 -145 10 -7 11 49 112 234 425 128
217 124 222 86 -139z"/>
<path d="M15546 11181 l-139 -6 -169 -390 c-685 -1578 -821 -1910 -843 -2056
-9 -57 7 -91 63 -136 l41 -33 574 0 574 0 30 73 c47 111 47 114 21 130 -18 12
-87 16 -322 20 -330 7 -331 7 -329 69 2 52 178 485 697 1715 135 320 246 590
248 600 3 17 -9 18 -152 19 -85 0 -218 -2 -294 -5z"/>
<path d="M17149 11183 l-136 -4 -13 -27 c-29 -63 -1120 -2583 -1120 -2587 0
-7 411 -6 521 1 l96 7 136 321 c75 177 247 582 383 901 416 979 574 1357 574
1370 0 26 -31 27 -441 18z"/>
<path d="M17855 11100 c-19 -61 -26 -93 -19 -100 7 -7 179 -13 457 -18 278 -5
451 -12 457 -18 18 -18 -51 -96 -949 -1063 -1037 -1118 -1087 -1179 -1043
-1270 33 -69 -10 -65 879 -69 770 -4 802 -3 811 15 23 47 65 183 58 190 -4 4
-227 11 -494 15 -461 6 -542 12 -542 36 0 27 233 287 1009 1127 913 988 916
991 942 1049 10 22 19 55 19 71 0 40 -33 92 -68 108 -20 9 -214 13 -757 15
l-731 3 -29 -91z"/>
<path d="M20090 11180 c-152 -11 -191 -24 -256 -83 -46 -41 -65 -71 -114 -172
-153 -321 -642 -1449 -815 -1884 -88 -221 -97 -249 -97 -310 0 -36 5 -79 11
-94 27 -68 120 -76 861 -77 l575 0 43 99 c23 55 42 104 42 109 0 6 -158 11
-407 14 -352 4 -413 7 -447 21 -38 17 -38 18 -33 60 5 45 67 196 267 655 l123
282 368 0 369 0 42 85 c23 46 39 87 36 90 -3 3 -166 9 -361 13 -196 4 -359 11
-362 14 -11 11 213 541 340 804 102 212 84 206 631 212 l411 4 36 74 c20 41
37 79 37 84 0 12 -1134 11 -1300 0z"/>
<path d="M22675 8738 c-48 -17 -93 -55 -122 -105 -65 -112 -12 -267 109 -317
50 -21 134 -20 184 3 84 38 144 145 130 232 -23 145 -166 234 -301 187z m148
-42 c41 -17 91 -74 107 -121 24 -74 -10 -162 -79 -206 -94 -60 -215 -26 -268
76 -20 38 -20 122 0 160 44 86 154 128 240 91z"/>
<path d="M22670 8520 c0 -109 2 -130 15 -130 12 0 15 13 15 56 l0 55 33 -3
c26 -2 38 -12 66 -55 21 -34 41 -53 53 -53 18 0 18 2 -3 40 -13 22 -31 49 -41
60 -10 11 -14 20 -8 20 20 0 50 41 50 69 0 47 -39 71 -116 71 l-64 0 0 -130z
m130 82 c19 -16 21 -22 11 -40 -10 -18 -21 -22 -61 -22 l-50 0 0 40 c0 40 0
40 39 40 23 0 48 -8 61 -18z"/>
</g>
</svg>
